<svg xmlns="http://www.w3.org/2000/svg" version="1.1" xmlns:xlink="http://www.w3.org/1999/xlink" xmlns:svgjs="http://svgjs.dev/svgjs" width="1500" height="170" viewBox="0 0 1500 170"><g transform="matrix(1,0,0,1,-0.9090909090909918,-0.35730738391936256)"><svg viewBox="0 0 396 45" data-background-color="#ffffff" preserveAspectRatio="xMidYMid meet" height="170" width="1500" xmlns="http://www.w3.org/2000/svg" xmlns:xlink="http://www.w3.org/1999/xlink"><g id="tight-bounds" transform="matrix(1,0,0,1,0.2400000000000091,0.09458136633159597)"><svg viewBox="0 0 395.52 44.81058283728371" height="44.81058283728371" width="395.52"><g><svg viewBox="0 0 456.0090042078885 51.6637066585883" height="44.81058283728371" width="395.52"><g transform="matrix(1,0,0,1,60.489004207888506,7.140208373220236)"><svg viewBox="0 0 395.52 37.38328991214783" height="37.38328991214783" width="395.52"><g id="textblocktransform"><svg viewBox="0 0 395.52 37.38328991214783" height="37.38328991214783" width="395.52" id="textblock"><g><svg viewBox="0 0 395.52 37.38328991214783" height="37.38328991214783" width="395.52"><g transform="matrix(1,0,0,1,0,0)"><svg width="395.52" viewBox="4.6 -37.1 490.60999999999996 46.8" height="37.38328991214783" data-palette-color="#0080ff"><g class="wordmark-text-0" data-fill-palette-color="primary" id="text-0"><path d="M4.6 0L4.6-35 10.5-35 10.5-5.05 25.65-5.05 25.65 0 4.6 0ZM47.6-11.85L39.65-11.85Q36.85-11.85 35.5-11 34.15-10.15 34.15-8.2L34.15-8.2Q34.15-6.35 35.52-5.25 36.9-4.15 39.3-4.15L39.3-4.15Q41.45-4.15 43.15-4.9 44.85-5.65 45.85-6.93 46.85-8.2 46.9-9.8L46.9-9.8 48-4.95Q46.75-2.35 44.2-1.05 41.65 0.25 38.1 0.25L38.1 0.25Q35.25 0.25 33.15-0.85 31.05-1.95 29.9-3.83 28.75-5.7 28.75-8L28.75-8Q28.75-11.6 31.37-13.75 34-15.9 38.8-15.95L38.8-15.95 47.6-15.95 47.6-11.85ZM46.9 0L46.85-16.85Q46.85-19.45 45.25-20.9 43.65-22.35 40.5-22.35L40.5-22.35Q38.6-22.35 36.62-21.65 34.65-20.95 32.65-19.6L32.65-19.6 30.3-23.3Q32.15-24.45 33.8-25.2 35.45-25.95 37.32-26.35 39.2-26.75 41.75-26.75L41.75-26.75Q46.9-26.75 49.67-24.28 52.45-21.8 52.5-17.45L52.5-17.45 52.55 0 46.9 0ZM65.15-26.55L65.15-11.55Q65.15-8.45 66.8-6.68 68.45-4.9 71.34-4.9L71.34-4.9Q74.8-5 76.72-7.45 78.65-9.9 78.65-13.5L78.65-13.5 80.2-13.5Q80.2-8.6 78.84-5.6 77.5-2.6 75.02-1.23 72.55 0.15 69.15 0.2L69.15 0.2Q66.09 0.2 63.92-1.05 61.75-2.3 60.57-4.6 59.4-6.9 59.4-10.05L59.4-10.05 59.4-26.55 65.15-26.55ZM78.65 0L78.65-26.55 84.4-26.55 84.4 0 78.65 0ZM112.59 0L112.59-15Q112.59-18.1 110.89-19.88 109.19-21.65 106.19-21.65L106.19-21.65Q102.64-21.6 100.62-19.15 98.59-16.7 98.59-13.05L98.59-13.05 96.99-13.05Q96.99-18 98.39-21 99.79-24 102.37-25.38 104.94-26.75 108.44-26.75L108.44-26.75Q111.54-26.75 113.77-25.5 115.99-24.25 117.17-21.98 118.34-19.7 118.34-16.5L118.34-16.5 118.34 0 112.59 0ZM92.89 0L92.89-26.55 98.64-26.55 98.64 0 92.89 0ZM147.94-22.65L144.79-18.95Q143.39-20.4 141.49-21.2 139.59-22 137.19-22L137.19-22Q134.89-22 133.09-20.9 131.29-19.8 130.29-17.82 129.29-15.85 129.29-13.25L129.29-13.25Q129.29-10.65 130.29-8.68 131.29-6.7 133.09-5.58 134.89-4.45 137.19-4.45L137.19-4.45Q139.69-4.45 141.69-5.28 143.69-6.1 145.04-7.7L145.04-7.7 148.24-4.55Q146.44-2.3 143.57-1.05 140.69 0.2 136.94 0.2L136.94 0.2Q132.99 0.2 129.97-1.5 126.94-3.2 125.24-6.23 123.54-9.25 123.54-13.25L123.54-13.25Q123.54-17.25 125.24-20.28 126.94-23.3 129.97-25.03 132.99-26.75 136.94-26.75L136.94-26.75Q140.54-26.75 143.32-25.68 146.09-24.6 147.94-22.65L147.94-22.65ZM174.24 0L174.24-15Q174.24-18.1 172.54-19.88 170.84-21.65 167.84-21.65L167.84-21.65Q164.29-21.6 162.26-19.15 160.24-16.7 160.24-13.05L160.24-13.05 158.64-13.05Q158.64-18 160.04-21 161.44-24 164.01-25.38 166.59-26.75 170.09-26.75L170.09-26.75Q173.19-26.75 175.41-25.5 177.64-24.25 178.81-21.98 179.99-19.7 179.99-16.5L179.99-16.5 179.99 0 174.24 0ZM154.49 0L154.49-37.1 160.24-37.1 160.24 0 154.49 0ZM202.99-26.75L202.99-26.75Q206.78-26.75 209.63-25.05 212.49-23.35 214.09-20.3 215.69-17.25 215.69-13.2L215.69-13.2Q215.69-9.25 214.11-6.23 212.53-3.2 209.71-1.5 206.88 0.2 203.09 0.2L203.09 0.2Q199.44 0.2 196.86-1.4 194.28-3 192.94-6.03 191.59-9.05 191.59-13.2L191.59-13.2Q191.59-17.5 192.94-20.53 194.28-23.55 196.86-25.15 199.44-26.75 202.99-26.75ZM201.78-22.2L201.78-22.2Q199.44-22.2 197.59-21.05 195.74-19.9 194.71-17.93 193.69-15.95 193.69-13.35L193.69-13.35Q193.69-10.75 194.71-8.72 195.74-6.7 197.59-5.58 199.44-4.45 201.78-4.45L201.78-4.45Q204.19-4.45 206.01-5.6 207.84-6.75 208.86-8.75 209.88-10.75 209.88-13.35L209.88-13.35Q209.88-15.9 208.86-17.9 207.84-19.9 206.01-21.05 204.19-22.2 201.78-22.2ZM187.94 9.7L187.94-26.55 193.69-26.55 193.69 9.7 187.94 9.7ZM238.33-11.85L230.38-11.85Q227.58-11.85 226.23-11 224.88-10.15 224.88-8.2L224.88-8.2Q224.88-6.35 226.26-5.25 227.63-4.15 230.03-4.15L230.03-4.15Q232.18-4.15 233.88-4.9 235.58-5.65 236.58-6.93 237.58-8.2 237.63-9.8L237.63-9.8 238.73-4.95Q237.48-2.35 234.93-1.05 232.38 0.25 228.83 0.25L228.83 0.25Q225.98 0.25 223.88-0.85 221.78-1.95 220.63-3.83 219.48-5.7 219.48-8L219.48-8Q219.48-11.6 222.11-13.75 224.73-15.9 229.53-15.95L229.53-15.95 238.33-15.95 238.33-11.85ZM237.63 0L237.58-16.85Q237.58-19.45 235.98-20.9 234.38-22.35 231.23-22.35L231.23-22.35Q229.33-22.35 227.36-21.65 225.38-20.95 223.38-19.6L223.38-19.6 221.03-23.3Q222.88-24.45 224.53-25.2 226.18-25.95 228.06-26.35 229.93-26.75 232.48-26.75L232.48-26.75Q237.63-26.75 240.41-24.28 243.18-21.8 243.23-17.45L243.23-17.45 243.28 0 237.63 0ZM261.13-26.8L261.13-26.8Q264.83-26.8 267.41-25.18 269.98-23.55 271.36-20.53 272.73-17.5 272.68-13.3L272.68-13.3Q272.73-9.1 271.38-6.05 270.03-3 267.46-1.38 264.88 0.25 261.23 0.25L261.23 0.25Q257.43 0.25 254.56-1.48 251.68-3.2 250.08-6.28 248.48-9.35 248.48-13.35L248.48-13.35Q248.48-17.35 250.08-20.38 251.68-23.4 254.53-25.1 257.38-26.8 261.13-26.8ZM262.43-22.15L262.43-22.15Q260.03-22.15 258.18-21 256.33-19.85 255.31-17.82 254.28-15.8 254.23-13.2L254.23-13.2Q254.28-10.6 255.31-8.6 256.33-6.6 258.18-5.45 260.03-4.3 262.43-4.3L262.43-4.3Q264.83-4.3 266.68-5.45 268.53-6.6 269.56-8.6 270.58-10.6 270.58-13.2L270.58-13.2Q270.58-15.85 269.56-17.85 268.53-19.85 266.68-21 264.83-22.15 262.43-22.15ZM270.58 0L270.58-37.1 276.33-37.1 276.33 0 270.58 0Z" fill="#0080ff" data-fill-palette-color="primary"></path><path d="M296.23-15.2L312.48-15.2Q312.38-17.45 311.45-19.03 310.53-20.6 308.88-21.48 307.23-22.35 305.08-22.35L305.08-22.35Q302.68-22.35 300.9-21.25 299.13-20.15 298.13-18.18 297.13-16.2 297.13-13.55L297.13-13.55Q297.13-10.7 298.2-8.6 299.28-6.5 301.2-5.35 303.13-4.2 305.63-4.2L305.63-4.2Q310.08-4.2 313.13-7.35L313.13-7.35 316.18-4.3Q314.23-2.15 311.43-0.98 308.63 0.2 305.18 0.2L305.18 0.2Q301.08 0.2 298.03-1.5 294.98-3.2 293.28-6.23 291.58-9.25 291.58-13.25L291.58-13.25Q291.58-17.25 293.28-20.28 294.98-23.3 298.03-25 301.08-26.7 305.03-26.75L305.03-26.75Q309.73-26.75 312.58-24.83 315.43-22.9 316.63-19.4 317.83-15.9 317.48-11.1L317.48-11.1 296.23-11.1 296.23-15.2ZM329.33-13.6L320.58-26.55 327.18-26.55 333.13-17.25 339.18-26.55 345.48-26.55 336.92-13.6 346.08 0 339.48 0 333.13-9.95 326.33 0 319.93 0 329.33-13.6ZM366.47-26.75L366.47-26.75Q370.27-26.75 373.12-25.05 375.97-23.35 377.57-20.3 379.17-17.25 379.17-13.2L379.17-13.2Q379.17-9.25 377.6-6.23 376.02-3.2 373.2-1.5 370.37 0.2 366.57 0.2L366.57 0.2Q362.92 0.2 360.35-1.4 357.77-3 356.42-6.03 355.07-9.05 355.07-13.2L355.07-13.2Q355.07-17.5 356.42-20.53 357.77-23.55 360.35-25.15 362.92-26.75 366.47-26.75ZM365.27-22.2L365.27-22.2Q362.92-22.2 361.07-21.05 359.22-19.9 358.2-17.93 357.17-15.95 357.17-13.35L357.17-13.35Q357.17-10.75 358.2-8.72 359.22-6.7 361.07-5.58 362.92-4.45 365.27-4.45L365.27-4.45Q367.67-4.45 369.5-5.6 371.32-6.75 372.35-8.75 373.37-10.75 373.37-13.35L373.37-13.35Q373.37-15.9 372.35-17.9 371.32-19.9 369.5-21.05 367.67-22.2 365.27-22.2ZM351.42 9.7L351.42-26.55 357.17-26.55 357.17 9.7 351.42 9.7ZM385.42 0L385.42-37.1 391.17-37.1 391.17 0 385.42 0ZM411.32-26.75L411.32-26.75Q415.42-26.75 418.54-25.05 421.67-23.35 423.42-20.33 425.17-17.3 425.17-13.3L425.17-13.3Q425.17-9.3 423.42-6.25 421.67-3.2 418.54-1.5 415.42 0.2 411.32 0.2L411.32 0.2Q407.22 0.2 404.07-1.5 400.92-3.2 399.17-6.25 397.42-9.3 397.42-13.3L397.42-13.3Q397.42-17.3 399.17-20.33 400.92-23.35 404.07-25.05 407.22-26.75 411.32-26.75ZM411.32-22.1L411.32-22.1Q408.92-22.1 407.07-20.98 405.22-19.85 404.19-17.85 403.17-15.85 403.17-13.25L403.17-13.25Q403.17-10.6 404.19-8.6 405.22-6.6 407.07-5.48 408.92-4.35 411.32-4.35L411.32-4.35Q413.72-4.35 415.54-5.48 417.37-6.6 418.39-8.6 419.42-10.6 419.42-13.25L419.42-13.25Q419.42-15.85 418.39-17.85 417.37-19.85 415.54-20.98 413.72-22.1 411.32-22.1ZM446.12-26.75L446.12-21.55Q443.27-21.7 441.19-20.58 439.11-19.45 437.99-17.45 436.86-15.45 436.86-12.85L436.86-12.85 435.27-13.05Q435.27-17.5 436.57-20.55 437.86-23.6 440.32-25.18 442.77-26.75 446.12-26.75L446.12-26.75ZM431.17 0L431.17-26.55 436.92-26.55 436.92 0 431.17 0ZM453.01-15.2L469.26-15.2Q469.16-17.45 468.24-19.03 467.31-20.6 465.66-21.48 464.01-22.35 461.86-22.35L461.86-22.35Q459.46-22.35 457.69-21.25 455.91-20.15 454.91-18.18 453.91-16.2 453.91-13.55L453.91-13.55Q453.91-10.7 454.99-8.6 456.06-6.5 457.99-5.35 459.91-4.2 462.41-4.2L462.41-4.2Q466.86-4.2 469.91-7.35L469.91-7.35 472.96-4.3Q471.01-2.15 468.21-0.98 465.41 0.2 461.96 0.2L461.96 0.2Q457.86 0.2 454.81-1.5 451.76-3.2 450.06-6.23 448.36-9.25 448.36-13.25L448.36-13.25Q448.36-17.25 450.06-20.28 451.76-23.3 454.81-25 457.86-26.7 461.81-26.75L461.81-26.75Q466.51-26.75 469.36-24.83 472.21-22.9 473.41-19.4 474.61-15.9 474.26-11.1L474.26-11.1 453.01-11.1 453.01-15.2ZM495.21-26.75L495.21-21.55Q492.36-21.7 490.29-20.58 488.21-19.45 487.09-17.45 485.96-15.45 485.96-12.85L485.96-12.85 484.36-13.05Q484.36-17.5 485.66-20.55 486.96-23.6 489.41-25.18 491.86-26.75 495.21-26.75L495.21-26.75ZM480.26 0L480.26-26.55 486.01-26.55 486.01 0 480.26 0Z" fill="#0080ff" data-fill-palette-color="primary"></path></g></svg></g></svg></g></svg></g></svg></g><g><svg viewBox="0 0 51.663706658588296 51.6637066585883" height="51.6637066585883" width="51.663706658588296"><g><svg></svg></g><g id="icon-0"><svg viewBox="0 0 51.663706658588296 51.6637066585883" height="51.6637066585883" width="51.663706658588296"><g><path transform="scale(0.51664,0.51664)" d="M30 100c-16.569 0-30-13.431-30-30v-40c0-16.569 13.431-30 30-30h40c16.569 0 30 13.431 30 30v40c0 16.569-13.431 30-30 30z" fill="#0080ff" fill-rule="nonzero" stroke="none" stroke-width="1" stroke-linecap="butt" stroke-linejoin="miter" stroke-miterlimit="10" stroke-dasharray="" stroke-dashoffset="0" font-family="none" font-weight="none" font-size="none" text-anchor="none" style="mix-blend-mode: normal" data-fill-palette-color="accent"></path></g><g transform="matrix(1,0,0,1,11.538546550610485,10.332741331717662)"><svg viewBox="0 0 28.586613557367325 30.99822399515298" height="30.99822399515298" width="28.586613557367325"><g><svg xmlns="http://www.w3.org/2000/svg" xmlns:xlink="http://www.w3.org/1999/xlink" version="1.1" x="0" y="0" viewBox="26.20865799029419 22.717 91.79134200970582 99.535" enable-background="new 0 0 144.083 144" xml:space="preserve" height="30.99822399515298" width="28.586613557367325" class="icon-dxe-0" data-fill-palette-color="quaternary" id="dxe-0"><path d="M116.5 22.717H102.062A1.5 1.5 0 0 0 100.562 24.217V38.655H76.415C72.418 30.464 66.908 25.471 60.733 25.471 48.242 25.471 38.457 45.882 38.457 71.94V93.075L26.339 120.138A1.502 1.502 0 0 0 27.708 122.252H39.957A1.5 1.5 0 0 0 41.457 120.752V110.398H53.902V120.752A1.5 1.5 0 0 0 55.402 122.252H66.064A1.5 1.5 0 0 0 67.564 120.752V110.398H80.064V120.752A1.5 1.5 0 0 0 81.564 122.252H93.814A1.502 1.502 0 0 0 95.183 120.138L83.042 93.024C83.036 92.995 83.017 92.97 83.011 92.942V71.939C83.011 60.265 81.042 49.734 77.751 41.654H100.564V120.75A1.5 1.5 0 0 0 102.064 122.25H116.5A1.5 1.5 0 0 0 118 120.75V24.217A1.5 1.5 0 0 0 116.5 22.717M38.456 108.896V119.25H30.022L38.456 100.415zM83.063 100.415L91.497 119.25H83.063zM64.563 119.25H56.901V94.775H64.563zM80.01 107.396H67.563V93.275A1.5 1.5 0 0 0 66.063 91.775H55.401A1.5 1.5 0 0 0 53.901 93.275V107.396H41.456V93.667A1.45 1.45 0 0 0 41.456 92.977V73.439H80.01zM79.999 70.439H41.468C41.833 47.538 50.506 28.47 60.733 28.47 65.33 28.47 69.61 32.331 72.966 38.654H60.732V41.654H74.406C77.702 49.211 79.821 59.374 79.999 70.439M115 119.25H103.562V74.229H115zM115 71.229H103.562V57.941H115zM115 54.941H103.562V41.654H115zM115 38.654H103.562V25.717H115z" fill="#ffffff" data-fill-palette-color="quaternary"></path></svg></g></svg></g></svg></g></svg></g></svg></g><defs></defs></svg><rect width="395.52" height="44.81058283728371" fill="none" stroke="none" visibility="hidden"></rect></g></svg></g></svg>