<svg width="170" height="170" viewBox="0 0 170 170" fill="none" xmlns="http://www.w3.org/2000/svg">
<g clip-path="url(#clip0_1_24)">
<path d="M50.7832 169.285C22.7343 169.285 -0.00241089 146.549 -0.00241089 118.5V50.7856C-0.00241089 22.7367 22.7343 0 50.7832 0H118.497C146.546 0 169.283 22.7367 169.283 50.7856V118.5C169.283 146.549 146.546 169.285 118.497 169.285H50.7832Z" fill="#0080FF"/>
<g clip-path="url(#clip1_1_24)">
<g clip-path="url(#clip2_1_24)">
<path d="M129.943 33.8569H115.21C114.804 33.8569 114.415 34.0182 114.128 34.3052C113.841 34.5923 113.679 34.9816 113.679 35.3876V50.1208H89.0386C84.9599 41.7623 79.3372 36.6672 73.0359 36.6672C60.2894 36.6672 50.3043 57.4957 50.3043 84.0866V105.654L37.9385 133.27C37.8345 133.503 37.7903 133.759 37.8101 134.013C37.8299 134.268 37.9129 134.514 38.0517 134.728C38.1905 134.942 38.3806 135.119 38.6048 135.241C38.829 135.363 39.0802 135.427 39.3355 135.428H51.835C52.241 135.428 52.6303 135.266 52.9173 134.979C53.2044 134.692 53.3657 134.303 53.3657 133.897V123.331H66.0652V133.897C66.0652 134.303 66.2265 134.692 66.5135 134.979C66.8006 135.266 67.1899 135.428 67.5959 135.428H78.4759C78.8819 135.428 79.2712 135.266 79.5583 134.979C79.8453 134.692 80.0066 134.303 80.0066 133.897V123.331H92.7623V133.897C92.7623 134.303 92.9235 134.692 93.2106 134.979C93.4976 135.266 93.887 135.428 94.2929 135.428H106.793C107.049 135.427 107.3 135.363 107.524 135.241C107.748 135.119 107.938 134.942 108.077 134.728C108.216 134.514 108.299 134.268 108.319 134.013C108.339 133.759 108.294 133.503 108.19 133.27L95.8012 105.602C95.795 105.572 95.7756 105.547 95.7695 105.518V84.0856C95.7695 72.1728 93.7603 61.4264 90.4019 53.1812H113.682V133.895C113.682 134.301 113.843 134.69 114.13 134.977C114.417 135.264 114.806 135.426 115.212 135.426H129.943C130.349 135.426 130.739 135.264 131.026 134.977C131.313 134.69 131.474 134.301 131.474 133.895V35.3876C131.474 34.9816 131.313 34.5923 131.026 34.3052C130.739 34.0182 130.349 33.8569 129.943 33.8569ZM50.3033 121.798V132.364H41.6968L50.3033 113.144V121.798ZM95.8226 113.144L104.429 132.364H95.8226V113.144ZM76.9442 132.364H69.1255V107.389H76.9442V132.364ZM92.7071 120.268H80.0056V105.858C80.0056 105.452 79.8443 105.063 79.5573 104.776C79.2702 104.489 78.8809 104.327 78.4749 104.327H67.5949C67.1889 104.327 66.7996 104.489 66.5125 104.776C66.2254 105.063 66.0642 105.452 66.0642 105.858V120.268H53.3647V106.258C53.4213 106.027 53.4213 105.785 53.3647 105.554V85.6162H92.7071V120.268ZM92.6959 82.5549H53.3769C53.7494 59.1855 62.5997 39.7275 73.0359 39.7275C77.7269 39.7275 82.0945 43.6675 85.5191 50.1198H73.0349V53.1812H86.9885C90.3519 60.8927 92.5143 71.2636 92.6959 82.5549ZM128.413 132.364H116.741V86.4224H128.413V132.364ZM128.413 83.361H116.741V69.8013H128.413V83.361ZM128.413 66.7399H116.741V53.1812H128.413V66.7399ZM128.413 50.1198H116.741V36.9182H128.413V50.1198Z" fill="white"/>
</g>
</g>
</g>
<defs>
<clipPath id="clip0_1_24">
<rect width="169.284" height="169.284" fill="white" transform="translate(-0.00241089)"/>
</clipPath>
<clipPath id="clip1_1_24">
<rect width="93.6686" height="101.571" fill="white" transform="translate(37.8055 33.8569)"/>
</clipPath>
<clipPath id="clip2_1_24">
<rect width="93.6686" height="101.571" fill="white" transform="translate(37.8055 33.8569)"/>
</clipPath>
</defs>
</svg>
